<svg xmlns="http://www.w3.org/2000/svg" width="133.648" height="140.841" viewBox="0 0 133.648 140.841">
  <g id="Group_6691" data-name="Group 6691" transform="translate(-3 0.341)">
    <line id="Line_11318" data-name="Line 11318" y2="49" transform="translate(17 90.5)" fill="none" stroke="#5e6573" stroke-linecap="round" stroke-linejoin="round" stroke-width="2"/>
    <path id="Path_22727" data-name="Path 22727" d="M35.677,52.791,25.96,44.168l8.087-10.745L48.008,14.86" transform="translate(27.096 17.101)" fill="none" stroke="#5e6573" stroke-linecap="round" stroke-linejoin="round" stroke-width="2"/>
    <path id="Path_22728" data-name="Path 22728" d="M51.879,20.55l2.413,1.7L37.56,45.77" transform="translate(41.409 24.122)" fill="none" stroke="#5e6573" stroke-linecap="round" stroke-linejoin="round" stroke-width="2"/>
    <path id="Path_22729" data-name="Path 22729" d="M35.961,14.86l8.6,6.121h0l-.536.536s-5.451,4.959-7.573,7.416a3.172,3.172,0,0,0,.246,4.311,3.641,3.641,0,0,0,4.155,0l9.516-7.506,7.416-3.016,7.193-4.334,9.338-1.608" transform="translate(39.143 17.101)" fill="none" stroke="#5e6573" stroke-linecap="round" stroke-linejoin="round" stroke-width="2"/>
    <path id="Path_22730" data-name="Path 22730" d="M77.557,8.74l-7.908,1.474H56.38a19.122,19.122,0,0,0-3.552.335l-3.4.648a9.673,9.673,0,0,0-3.775,1.631l-6.545,4.736a18.966,18.966,0,0,0-6.322,7.886l-.938,2.234a19.233,19.233,0,0,0-1.519,5.808l-.6,6.947" transform="translate(31.747 9.55)" fill="none" stroke="#5e6573" stroke-linecap="round" stroke-linejoin="round" stroke-width="2"/>
    <path id="Path_22731" data-name="Path 22731" d="M60.864,25.7l-5.5.916L51.08,8.763l6.1-2.033" transform="translate(58.091 7.07)" fill="none" stroke="#5e6573" stroke-linecap="round" stroke-linejoin="round" stroke-width="2"/>
    <path id="Path_22732" data-name="Path 22732" d="M73.28,1,54.27,10.494l4.758,23.768L73.28,29.527" transform="translate(62.027)" fill="none" stroke="#5e6573" stroke-linecap="round" stroke-linejoin="round" stroke-width="2"/>
    <path id="Path_22733" data-name="Path 22733" d="M32,32.575l6.7,2.234L40.935,23.64" transform="translate(34.548 27.935)" fill="none" stroke="#5e6573" stroke-linecap="round" stroke-linejoin="round" stroke-width="2"/>
    <line id="Line_11319" data-name="Line 11319" x2="32" transform="translate(55 76.5)" fill="none" stroke="#5e6573" stroke-linecap="round" stroke-linejoin="round" stroke-width="2"/>
    <path id="Path_22734" data-name="Path 22734" d="M36.806,27H29.122a2.234,2.234,0,0,0-1.9,1.072L10,58.274H114.992L99.98,28.184A2.234,2.234,0,0,0,98.015,27H92.653" transform="translate(7.403 32.081)" fill="none" stroke="#5e6573" stroke-linecap="round" stroke-linejoin="round" stroke-width="2"/>
    <line id="Line_11320" data-name="Line 11320" y2="49" transform="translate(122 90.5)" fill="none" stroke="#5e6573" stroke-linecap="round" stroke-linejoin="round" stroke-width="2"/>
    <line id="Line_11321" data-name="Line 11321" y2="8.935" transform="translate(69.899 103.222)" fill="none" stroke="#5e6573" stroke-linecap="round" stroke-linejoin="round" stroke-width="2"/>
    <line id="Line_11322" data-name="Line 11322" x2="8.489" y2="2.748" transform="translate(61.41 109.41)" fill="none" stroke="#5e6573" stroke-linecap="round" stroke-linejoin="round" stroke-width="2"/>
    <line id="Line_11323" data-name="Line 11323" y1="7.238" x2="5.25" transform="translate(64.65 112.157)" fill="none" stroke="#5e6573" stroke-linecap="round" stroke-linejoin="round" stroke-width="2"/>
    <line id="Line_11324" data-name="Line 11324" x1="5.25" y1="7.238" transform="translate(69.899 112.157)" fill="none" stroke="#5e6573" stroke-linecap="round" stroke-linejoin="round" stroke-width="2"/>
    <line id="Line_11325" data-name="Line 11325" x1="8.489" y2="2.748" transform="translate(69.899 109.41)" fill="none" stroke="#5e6573" stroke-linecap="round" stroke-linejoin="round" stroke-width="2"/>
    <line id="Line_11326" data-name="Line 11326" y2="8.935" transform="translate(38.848 112.694)" fill="none" stroke="#5e6573" stroke-linecap="round" stroke-linejoin="round" stroke-width="2"/>
    <line id="Line_11327" data-name="Line 11327" x2="8.511" y2="2.77" transform="translate(30.337 118.859)" fill="none" stroke="#5e6573" stroke-linecap="round" stroke-linejoin="round" stroke-width="2"/>
    <line id="Line_11328" data-name="Line 11328" y1="7.238" x2="5.25" transform="translate(33.599 121.629)" fill="none" stroke="#5e6573" stroke-linecap="round" stroke-linejoin="round" stroke-width="2"/>
    <line id="Line_11329" data-name="Line 11329" x1="5.25" y1="7.238" transform="translate(38.848 121.629)" fill="none" stroke="#5e6573" stroke-linecap="round" stroke-linejoin="round" stroke-width="2"/>
    <line id="Line_11330" data-name="Line 11330" x1="8.489" y2="2.77" transform="translate(38.848 118.859)" fill="none" stroke="#5e6573" stroke-linecap="round" stroke-linejoin="round" stroke-width="2"/>
    <line id="Line_11331" data-name="Line 11331" y2="8.935" transform="translate(100.95 112.694)" fill="none" stroke="#5e6573" stroke-linecap="round" stroke-linejoin="round" stroke-width="2"/>
    <line id="Line_11332" data-name="Line 11332" x2="8.489" y2="2.77" transform="translate(92.461 118.859)" fill="none" stroke="#5e6573" stroke-linecap="round" stroke-linejoin="round" stroke-width="2"/>
    <line id="Line_11333" data-name="Line 11333" y1="7.238" x2="5.25" transform="translate(95.7 121.629)" fill="none" stroke="#5e6573" stroke-linecap="round" stroke-linejoin="round" stroke-width="2"/>
    <line id="Line_11334" data-name="Line 11334" x1="5.25" y1="7.238" transform="translate(100.95 121.629)" fill="none" stroke="#5e6573" stroke-linecap="round" stroke-linejoin="round" stroke-width="2"/>
    <line id="Line_11335" data-name="Line 11335" x1="8.511" y2="2.77" transform="translate(100.95 118.859)" fill="none" stroke="#5e6573" stroke-linecap="round" stroke-linejoin="round" stroke-width="2"/>
    <rect id="Rectangle_3602" data-name="Rectangle 3602" width="7.908" height="7.908" transform="translate(28.558 27.802) rotate(-45)" fill="none" stroke="#5e6573" stroke-linecap="round" stroke-linejoin="round" stroke-width="2"/>
    <circle id="Ellipse_8835" data-name="Ellipse 8835" cx="2.5" cy="2.5" r="2.5" transform="translate(8 38.5)" fill="#5c6574" stroke="#5e6573" stroke-width="1"/>
    <circle id="Ellipse_8836" data-name="Ellipse 8836" cx="2" cy="2" r="2" transform="translate(49 12.5)" fill="#5c6574" stroke="#5e6573" stroke-width="1"/>
    <circle id="Ellipse_8837" data-name="Ellipse 8837" cx="4.5" cy="4.5" r="4.5" transform="translate(4 56.5)" fill="none" stroke="#5e6573" stroke-width="2"/>
    <ellipse id="Ellipse_8838" data-name="Ellipse 8838" cx="2" cy="2.5" rx="2" ry="2.5" transform="translate(125 56.5)" fill="#5c6574" stroke="#5e6573" stroke-width="1"/>
  </g>
</svg>
