<svg xmlns="http://www.w3.org/2000/svg" width="46.567" height="46.65" viewBox="0 0 46.567 46.65">
  <g id="bank_3_" data-name="bank (3)" transform="translate(0 46.65) rotate(-90)">
    <path id="Path_5126" data-name="Path 5126" d="M23.325,3.106a2.733,2.733,0,1,0,2.733,2.733A2.736,2.736,0,0,0,23.325,3.106Zm0,4.1a1.367,1.367,0,1,1,1.367-1.367A1.368,1.368,0,0,1,23.325,7.206Zm23.324,3.224a.688.688,0,0,0-.419-.62L23.962.132a1.6,1.6,0,0,0-1.274,0L.42,9.81a.69.69,0,0,0-.42.64v2.234a2.508,2.508,0,0,0,2.506,2.506h.538a2.591,2.591,0,0,0,2.879,3.756V38.427a1.473,1.473,0,0,0-1.731,1.412v1.295H2.506A2.508,2.508,0,0,0,0,43.64v1.788a1.14,1.14,0,0,0,1.139,1.139H45.511a1.14,1.14,0,0,0,1.139-1.139V43.64a2.508,2.508,0,0,0-2.506-2.506H42.459V39.839a1.468,1.468,0,0,0-1.731-1.412V18.945a2.594,2.594,0,0,0,2.879-3.756h.538a2.508,2.508,0,0,0,2.506-2.506V10.45c0-.006,0,0,0-.021ZM5.33,17.649a1.23,1.23,0,0,1,0-2.46h7.385A1.23,1.23,0,1,1,11.5,16.661a.683.683,0,0,0-1.341.265,2.577,2.577,0,0,0,.587,1.2v11.8a.683.683,0,1,0,1.367,0V18.945A2.594,2.594,0,0,0,15,15.189h2.352a2.591,2.591,0,0,0,2.879,3.756V38.427A1.473,1.473,0,0,0,18.5,39.839v1.295H13.849V39.839a1.468,1.468,0,0,0-1.731-1.412v-5.32a.683.683,0,1,0-1.367,0v5.32H7.289v-20.3a2.576,2.576,0,0,0,.587-1.2.683.683,0,0,0-1.341-.265,1.23,1.23,0,0,1-1.206.988ZM29.3,15.189h2.352a2.591,2.591,0,0,0,2.879,3.756V38.427A1.472,1.472,0,0,0,32.8,39.839v1.295H28.154V39.839a1.468,1.468,0,0,0-1.731-1.412V18.945A2.594,2.594,0,0,0,29.3,15.189Zm-2.514,24.65v1.295H19.863V39.839a.046.046,0,0,1,.046-.046h6.833A.046.046,0,0,1,26.787,39.839Zm.228-22.19a1.23,1.23,0,0,1-1.206-.988.683.683,0,0,0-1.341.264,2.577,2.577,0,0,0,.587,1.2v20.3H21.594v-20.3a2.576,2.576,0,0,0,.587-1.2.683.683,0,1,0-1.341-.265,1.23,1.23,0,1,1-1.208-1.472h7.385a1.23,1.23,0,0,1,0,2.46ZM5.558,39.839a.046.046,0,0,1,.046-.046h6.833a.046.046,0,0,1,.046.046v1.295H5.558ZM44.144,42.5a1.14,1.14,0,0,1,1.139,1.139V45.2H1.367V43.64A1.14,1.14,0,0,1,2.506,42.5Zm-3.1-2.707a.046.046,0,0,1,.046.046v1.295H34.168V39.839a.046.046,0,0,1,.046-.046Zm.273-22.145a1.23,1.23,0,0,1-1.206-.988.683.683,0,1,0-1.341.264,2.577,2.577,0,0,0,.587,1.2v20.3H35.9v-20.3a2.576,2.576,0,0,0,.587-1.2.683.683,0,0,0-1.341-.265,1.23,1.23,0,1,1-1.208-1.472h7.385a1.23,1.23,0,0,1,0,2.46Zm3.963-4.965a1.14,1.14,0,0,1-1.139,1.139H2.506a1.14,1.14,0,0,1-1.139-1.139v-1.56H33.274a.683.683,0,1,0,0-1.367H3.97L23.234,1.385a.229.229,0,0,1,.183,0L42.68,9.757H36.462a.683.683,0,0,0,0,1.367h8.821v1.56Z" transform="translate(0 0)" fill="#fff"/>
  </g>
</svg>
