<svg xmlns="http://www.w3.org/2000/svg" width="21.873" height="23.991" viewBox="0 0 21.873 23.991">
  <g id="Group_1020" data-name="Group 1020" transform="translate(-2238.127 -2646.004)">
    <path id="fi-br-bell" d="M22.552,13.21,20.8,6.916A9.443,9.443,0,0,0,2.486,7.4L1.132,13.489A5.5,5.5,0,0,0,6.5,20.182h.4a5.285,5.285,0,0,0,10.154,0h.193a5.5,5.5,0,0,0,5.3-6.972Zm-3.309,2.984a2.48,2.48,0,0,1-1.991.988H6.5A2.5,2.5,0,0,1,4.06,14.14l1.354-6.1a6.443,6.443,0,0,1,12.5-.326l1.748,6.294a2.478,2.478,0,0,1-.419,2.186Z" transform="translate(2237.126 2645.997)" fill="#fff"/>
    <g id="Ellipse_72" data-name="Ellipse 72" transform="translate(2252 2647)" fill="#b20000" stroke="#363636" stroke-width="1">
      <circle cx="4" cy="4" r="4" stroke="none"/>
      <circle cx="4" cy="4" r="3.5" fill="none"/>
    </g>
  </g>
</svg>
