<svg width="64" height="64" viewBox="0 0 64 64" fill="none" xmlns="http://www.w3.org/2000/svg">
<g clip-path="url(#clip0_40_33)">
<path fill-rule="evenodd" clip-rule="evenodd" d="M11.3555 2.67764H52.1614C54.5314 2.67764 56.8042 3.61732 58.48 5.28996C60.1558 6.9626 61.0973 9.23119 61.0973 11.5967V52.3258C61.0973 54.6913 60.1558 56.9599 58.48 58.6325C56.8042 60.3052 54.5314 61.2449 52.1614 61.2449H11.3555C8.98559 61.2449 6.71272 60.3052 5.03693 58.6325C3.36113 56.9599 2.41968 54.6913 2.41968 52.3258V11.5967C2.41968 9.23119 3.36113 6.9626 5.03693 5.28996C6.71272 3.61732 8.98559 2.67764 11.3555 2.67764V2.67764Z" stroke="white" stroke-width="6"/>
<rect x="31" y="25" width="6" height="25" fill="white"/>
<ellipse cx="34" cy="21" rx="3" ry="2" fill="white"/>
</g>
<defs>
<clipPath id="clip0_40_33">
<rect width="64" height="64" fill="white"/>
</clipPath>
</defs>
</svg>
