<svg width="68" height="70" viewBox="0 0 68 70" fill="none" xmlns="http://www.w3.org/2000/svg">
<path fill-rule="evenodd" clip-rule="evenodd" d="M2.02056 35.9915C1.45791 35.9949 1 35.5397 1 34.977V34.977C1 34.4166 1.45441 33.9624 2.01484 33.9625L28.862 33.9712C31.7045 33.9721 33.61 31.0511 32.4637 28.45L32.1323 27.6981C32.0865 27.5941 32.0673 27.4804 32.0764 27.3671V27.3671C32.1314 26.6824 33.0479 26.4961 33.3659 27.105L36.994 34.0527C37.3559 34.7458 37.3572 35.5718 36.9974 36.266L33.7204 42.5887C33.4013 43.2043 32.4706 42.9774 32.4706 42.284V42.284C32.4706 42.1904 32.4905 42.0978 32.5289 42.0124L32.8167 41.3727C33.991 38.7624 32.0709 35.8124 29.2086 35.8294L2.02056 35.9915Z" fill="white" stroke="white" stroke-width="2"/>
<path fill-rule="evenodd" clip-rule="evenodd" d="M11.8052 8C11.8052 5.23858 14.0438 3 16.8052 3H60C62.7614 3 65 5.23858 65 8V62C65 64.7614 62.7614 67 60 67H16.8052C14.0438 67 11.8052 64.7614 11.8052 62V8Z" stroke="white" stroke-width="5"/>
</svg>
