<svg width="60" height="75" viewBox="0 0 60 75" fill="none" xmlns="http://www.w3.org/2000/svg">
<path fill-rule="evenodd" clip-rule="evenodd" d="M29.0381 59.1867C29.0381 59.1867 31.0345 59.584 31.0345 58.9084V56.6986H18.934V54.0441H16.037V56.6641H5.17242V59.0011L24.6322 59.0356L19.5994 67.2547L13.8056 63.9353C13.8056 63.9353 10.0178 65.0972 10.9087 66.1482C11.7996 67.1993 13.8056 67.2547 13.8056 67.2547V70.5742H7.78032V75H11.6248V72.787H23.4894V75H27.6274V70.7952L25.4505 69.1386L23.3367 67.3685" fill="white"/>
<path fill-rule="evenodd" clip-rule="evenodd" d="M39.2338 42.7196V40.1081H60V42.7196H39.2338V42.7196Z" fill="white"/>
<path fill-rule="evenodd" clip-rule="evenodd" d="M39.2338 48.4663V45.8548H60V48.4663H39.2338V48.4663Z" fill="white"/>
<path fill-rule="evenodd" clip-rule="evenodd" d="M39.2338 53.6903V51.0788H49.9518V53.6903H39.2338Z" fill="white"/>
<path d="M9.63898 39H5.9458L16.6276 9.90909H20.264L30.9458 39H27.2526L18.5594 14.5114H18.3322L9.63898 39ZM11.0026 27.6364H25.889V30.7614H11.0026V27.6364Z" fill="white"/>
</svg>
