<svg width="64" height="64" viewBox="0 0 64 64" fill="none" xmlns="http://www.w3.org/2000/svg">
<g clip-path="url(#clip0_40_68)">
<path d="M14.7027 47.5333C18.3117 47.5333 21.2373 44.9067 21.2373 41.6667C21.2373 38.4266 18.3117 35.8 14.7027 35.8C11.0938 35.8 8.16818 38.4266 8.16818 41.6667C8.16818 44.9067 11.0938 47.5333 14.7027 47.5333Z" stroke="white" stroke-width="5"/>
<path d="M28.8302 60.5297C28.8302 60.5297 27.3692 52.4893 23.2296 52.4893H14.9503" stroke="white" stroke-width="5"/>
<path d="M1.1198 60.5297C1.1198 60.5297 2.58085 52.4893 6.72045 52.4893H14.9998" stroke="white" stroke-width="5"/>
</g>
<g clip-path="url(#clip1_40_68)">
<path d="M48.7489 48.5333C52.3588 48.5333 55.2851 45.9067 55.2851 42.6667C55.2851 39.4266 52.3588 36.8 48.7489 36.8C45.1391 36.8 42.2128 39.4266 42.2128 42.6667C42.2128 45.9067 45.1391 48.5333 48.7489 48.5333Z" stroke="white" stroke-width="5"/>
<path d="M62.8799 61.5297C62.8799 61.5297 61.4185 53.4893 57.2779 53.4893H48.9965" stroke="white" stroke-width="5"/>
<path d="M35.1626 61.5297C35.1626 61.5297 36.624 53.4893 40.7647 53.4893H49.046" stroke="white" stroke-width="5"/>
</g>
<g clip-path="url(#clip2_40_68)">
<path d="M48.7459 16.5333C52.355 16.5333 55.2807 13.9067 55.2807 10.6667C55.2807 7.42658 52.355 4.79999 48.7459 4.79999C45.1368 4.79999 42.2111 7.42658 42.2111 10.6667C42.2111 13.9067 45.1368 16.5333 48.7459 16.5333Z" stroke="white" stroke-width="2"/>
<path d="M62.874 29.5297C62.874 29.5297 61.4129 21.4893 57.2731 21.4893H48.9934" stroke="white" stroke-width="2"/>
<path d="M35.1624 29.5297C35.1624 29.5297 36.6235 21.4893 40.7633 21.4893H49.0429" stroke="white" stroke-width="2"/>
</g>
<g clip-path="url(#clip3_40_68)">
<path d="M48.7459 16.5333C52.355 16.5333 55.2807 13.9067 55.2807 10.6667C55.2807 7.42658 52.355 4.79999 48.7459 4.79999C45.1368 4.79999 42.2111 7.42658 42.2111 10.6667C42.2111 13.9067 45.1368 16.5333 48.7459 16.5333Z" stroke="white" stroke-width="5"/>
<path d="M62.874 29.5297C62.874 29.5297 61.4129 21.4893 57.2731 21.4893H48.9934" stroke="white" stroke-width="5"/>
<path d="M35.1624 29.5297C35.1624 29.5297 36.6235 21.4893 40.7633 21.4893H49.0429" stroke="white" stroke-width="5"/>
</g>
<g clip-path="url(#clip4_40_68)">
<path d="M14.7034 16.5333C18.3124 16.5333 21.2382 13.9067 21.2382 10.6667C21.2382 7.42658 18.3124 4.79999 14.7034 4.79999C11.0943 4.79999 8.16853 7.42658 8.16853 10.6667C8.16853 13.9067 11.0943 16.5333 14.7034 16.5333Z" stroke="white" stroke-width="5"/>
<path d="M28.8314 29.5297C28.8314 29.5297 27.3703 21.4893 23.2305 21.4893H14.9509" stroke="white" stroke-width="5"/>
<path d="M1.11984 29.5297C1.11984 29.5297 2.58096 21.4893 6.72073 21.4893H15.0004" stroke="white" stroke-width="5"/>
</g>
<defs>
<clipPath id="clip0_40_68">
<rect width="29.95" height="32" fill="white" transform="translate(0 31)"/>
</clipPath>
<clipPath id="clip1_40_68">
<rect width="29.9574" height="32" fill="white" transform="translate(34.0426 32)"/>
</clipPath>
<clipPath id="clip2_40_68">
<rect width="29.9513" height="32" fill="white" transform="translate(34.0426)"/>
</clipPath>
<clipPath id="clip3_40_68">
<rect width="29.9513" height="32" fill="white" transform="translate(34.0426)"/>
</clipPath>
<clipPath id="clip4_40_68">
<rect width="29.9513" height="32" fill="white"/>
</clipPath>
</defs>
</svg>
