<svg width="70" height="71" viewBox="0 0 70 71" fill="none" xmlns="http://www.w3.org/2000/svg">
<path fill-rule="evenodd" clip-rule="evenodd" d="M8.11856 3H61.8814C63.239 3 64.5409 3.46821 65.5008 4.30162C66.4607 5.13504 67 6.26539 67 7.44401V54.1218C67 55.3004 66.4607 56.4308 65.5008 57.2642C64.5409 58.0976 63.239 58.5658 61.8814 58.5658H8.11856C6.76103 58.5658 5.45911 58.0976 4.49919 57.2642C3.53927 56.4308 3 55.3004 3 54.1218V7.44401C3 6.26539 3.53927 5.13504 4.49919 4.30162C5.45911 3.46821 6.76103 3 8.11856 3V3Z" stroke="white" stroke-width="5"/>
<path d="M15.1375 19.0331C15.1375 19.0331 53.1911 12.2158 53.1911 44.3628" stroke="white" stroke-width="4"/>
<path d="M3 67H66.9962" stroke="white" stroke-width="7"/>
</svg>
